<svg version="1.0" xmlns="http://www.w3.org/2000/svg" width="933.333" height="933.333" viewBox="0 0 700 700"><path d="M330.9 14.4c-.2.2-4.9.6-10.5 1-5.5.4-11.2.9-12.5 1.2-1.3.2-4.3.7-6.6.9-5.1.6-21.5 3.8-30.3 6-3.6.9-7.6 1.8-9 2.1-1.4.3-9.7 2.9-18.5 5.9-26.2 8.7-44.9 17.5-72.3 34C160.4 72 136.4 90 126 99.4c-7 6.4-24.1 23.7-28.7 29.2-2.3 2.7-5.4 6.2-6.8 7.9-11.9 13.7-30.9 43-41.1 63.5-16.7 33.5-28.9 73.6-32.8 108-2.8 23.5-2.8 74.1-.1 82.3.2.7.6 3.7.9 6.7.3 3 1.4 10.2 2.6 16 1.2 5.8 2.3 11.6 2.6 13 2.6 13 11.3 39.7 17.5 53.7 1.1 2.4 1.9 4.6 1.9 4.9 0 1 12.9 26.4 17.3 33.9 28 48.4 69.5 90.5 117.6 119.4 10 6 29.3 16.1 37.6 19.6 21.7 9.3 43.8 16.5 63 20.6 3.3.7 6.5 1.3 7 1.5 9.2 2 25.1 4.2 37.5 5.2 16.5 1.4 57.7.6 69-1.2 1.4-.3 4.5-.7 7-1 6.2-.8 20.9-3.6 31.5-6.1 10.5-2.4 35.4-10.2 43-13.5 1.1-.5 4.9-2.1 8.5-3.6 9.3-3.8 30.3-14.3 38.4-19.2 3.7-2.3 7-4.2 7.2-4.2.6 0 15.6-10.3 23.9-16.5 20.5-15.1 43.7-37.2 59.1-56.4 1-1.3 2.4-2.8 2.9-3.5 5.4-5.9 21.2-28.9 28.5-41.6 13.5-23.2 26.4-54.2 33.3-80 2.2-8.2 5.6-23 6.2-27.5.3-2.2.8-4.6 1-5.2.2-.7.7-4.3 1.1-8 .3-3.8.8-7.1 1-7.4.9-1.6 1.9-21.6 1.9-40.4 0-18.9-.7-32.5-2-41-.7-4.2-1.4-9.3-2.1-14-3.3-22.7-12-51.8-23.9-80-2.6-6.2-13.2-27.1-16-31.5-1.4-2.2-2.5-4.2-2.5-4.5 0-.3-3.6-6-8.1-12.7-11.4-17-21.4-30-31.5-40.8-2.8-3-6.4-7-8-8.8-5.2-5.8-26.9-25.1-37-32.7-5.5-4.1-10.4-7.9-11.1-8.5-.6-.5-4.9-3.4-9.5-6.3-30.1-19.3-62.9-34.2-94.8-42.8-13.1-3.5-32.5-7.4-44.5-8.9-4.9-.6-10.3-1.3-12-1.6-3.5-.6-51-1.5-51.6-1z"/></svg>